<?xml version="1.0" encoding="UTF-8" standalone="no"?>
<!-- Created with Inkscape (http://www.inkscape.org/) -->

<svg
   xmlns:dc="http://purl.org/dc/elements/1.1/"
   xmlns:cc="http://creativecommons.org/ns#"
   xmlns:rdf="http://www.w3.org/1999/02/22-rdf-syntax-ns#"
   xmlns:svg="http://www.w3.org/2000/svg"
   xmlns="http://www.w3.org/2000/svg"
   xmlns:sodipodi="http://sodipodi.sourceforge.net/DTD/sodipodi-0.dtd"
   xmlns:inkscape="http://www.inkscape.org/namespaces/inkscape"
   version="1.1"
   id="svg137"
   xml:space="preserve"
   width="449.33334"
   height="616"
   viewBox="0 0 449.33334 616"
   sodipodi:docname="baseball_all_double0.svg"
   inkscape:version="0.92.4 (unknown)"
   inkscape:export-filename="/home/sean/Code/baseball_graph/baseball_all_double0.png"
   inkscape:export-xdpi="150"
   inkscape:export-ydpi="150"><metadata
     id="metadata143"><rdf:RDF><cc:Work
         rdf:about=""><dc:format>image/svg+xml</dc:format><dc:type
           rdf:resource="http://purl.org/dc/dcmitype/StillImage" /><dc:title></dc:title></cc:Work></rdf:RDF></metadata><defs
     id="defs141"><clipPath
       clipPathUnits="userSpaceOnUse"
       id="clipPath155"><path
         d="M 36,36 H 301.496 V 425.602 H 36 Z"
         id="path153"
         inkscape:connector-curvature="0" /></clipPath></defs><sodipodi:namedview
     pagecolor="#ffffff"
     bordercolor="#666666"
     borderopacity="1"
     objecttolerance="10"
     gridtolerance="10"
     guidetolerance="10"
     inkscape:pageopacity="0"
     inkscape:pageshadow="2"
     inkscape:window-width="1853"
     inkscape:window-height="1025"
     id="namedview139"
     showgrid="false"
     inkscape:zoom="1.2930195"
     inkscape:cx="89.32455"
     inkscape:cy="308"
     inkscape:window-x="67"
     inkscape:window-y="27"
     inkscape:window-maximized="1"
     inkscape:current-layer="g145" /><g
     id="g145"
     inkscape:groupmode="layer"
     inkscape:label="baseball_all_double0"
     transform="matrix(1.3333333,0,0,1.3333333,0,1.54e-5)"><path
       d="m 272.52,230.078 c 0,9.938 -14.551,18 -32.497,18 -17.945,0 -32.492,-8.062 -32.492,-18 0,-9.941 14.547,-18 32.492,-18 17.946,0 32.497,8.059 32.497,18"
       style="fill:#d3d3d3;fill-opacity:1;fill-rule:nonzero;stroke:#ff0000;stroke-width:1;stroke-linecap:butt;stroke-linejoin:miter;stroke-miterlimit:10;stroke-dasharray:none;stroke-opacity:1"
       id="path243"
       inkscape:connector-curvature="0" /><path
       d="m 133.766,230.078 c 0,9.938 -16.25,18 -36.293,18 -20.047,0 -36.297,-8.062 -36.297,-18 0,-9.941 16.25,-18 36.297,-18 20.043,0 36.293,8.059 36.293,18"
       style="fill:#d3d3d3;fill-opacity:1;fill-rule:nonzero;stroke:#a020f0;stroke-width:1;stroke-linecap:butt;stroke-linejoin:miter;stroke-miterlimit:10;stroke-dasharray:none;stroke-opacity:1"
       id="path233"
       inkscape:connector-curvature="0" /><g
       id="g147" /><path
       d="m 196.645,259.602 c 0,9.941 -12.493,18 -27.899,18 -15.406,0 -27.894,-8.059 -27.894,-18 0,-9.942 12.488,-18 27.894,-18 15.406,0 27.899,8.058 27.899,18"
       style="fill:#d3d3d3;fill-opacity:1;fill-rule:nonzero;stroke:#ff00ff;stroke-width:1;stroke-linecap:butt;stroke-linejoin:miter;stroke-miterlimit:10;stroke-dasharray:none;stroke-opacity:1"
       id="path159"
       inkscape:connector-curvature="0" /><text
       style="font-variant:normal;font-size:14.00024414px;font-family:'Nimbus Roman No9 L';-inkscape-font-specification:NimbusRomNo9L-Regu;writing-mode:lr-tb;fill:#000000;fill-opacity:1;fill-rule:nonzero;stroke:none"
       id="text163"
       x="155.24609"
       y="263.30078"><tspan
         x="155.24609 161.9942 171.75238"
         y="263.30078"
         sodipodi:role="line"
         id="tspan161">0XX</tspan></text>
<path
       d="m 195.746,403.602 c 0,9.941 -12.086,18 -27,18 -14.91,0 -27,-8.059 -27,-18 0,-9.942 12.09,-18 27,-18 14.914,0 27,8.058 27,18"
       style="fill:#ff00ff;fill-opacity:1;fill-rule:nonzero;stroke:none"
       id="path165"
       inkscape:connector-curvature="0" /><path
       d="m 195.746,403.602 c 0,9.941 -12.086,18 -27,18 -14.91,0 -27,-8.059 -27,-18 0,-9.942 12.09,-18 27,-18 14.914,0 27,8.058 27,18"
       style="fill:none;stroke:#ff00ff;stroke-width:1;stroke-linecap:butt;stroke-linejoin:miter;stroke-miterlimit:10;stroke-dasharray:none;stroke-opacity:1"
       id="path167"
       inkscape:connector-curvature="0" /><text
       style="font-variant:normal;font-size:14.00024414px;font-family:'Nimbus Roman No9 L';-inkscape-font-specification:NimbusRomNo9L-Regu;writing-mode:lr-tb;fill:#000000;fill-opacity:1;fill-rule:nonzero;stroke:none"
       id="text171"
       x="165.24609"
       y="407.30078"><tspan
         x="165.24609"
         y="407.30078"
         id="tspan169">0</tspan></text>
<path
       d="m 168.746,385.363 c 0,-24.562 0,-68.515 0,-97.41"
       style="fill:none;stroke:#ff0000;stroke-width:1;stroke-linecap:butt;stroke-linejoin:miter;stroke-miterlimit:10;stroke-dasharray:none;stroke-opacity:1"
       id="path173"
       inkscape:connector-curvature="0" /><path
       d="m 165.246,287.691 3.5,-10 3.5,10 z"
       style="fill:#ff0000;fill-opacity:1;fill-rule:nonzero;stroke:#ff0000;stroke-width:1;stroke-linecap:butt;stroke-linejoin:miter;stroke-miterlimit:10;stroke-dasharray:none;stroke-opacity:1"
       id="path175"
       inkscape:connector-curvature="0" /><path
       d="m 297.441,158.801 c 0,9.941 -12.488,18 -27.894,18 -15.406,0 -27.895,-8.059 -27.895,-18 0,-9.942 12.489,-18 27.895,-18 15.406,0 27.894,8.058 27.894,18"
       style="fill:#d3d3d3;fill-opacity:1;fill-rule:nonzero;stroke:none"
       id="path177"
       inkscape:connector-curvature="0" /><path
       d="m 297.441,158.801 c 0,9.941 -12.488,18 -27.894,18 -15.406,0 -27.895,-8.059 -27.895,-18 0,-9.942 12.489,-18 27.895,-18 15.406,0 27.894,8.058 27.894,18"
       style="fill:none;stroke:#ffff00;stroke-width:1;stroke-linecap:butt;stroke-linejoin:miter;stroke-miterlimit:10;stroke-dasharray:none;stroke-opacity:1"
       id="path179"
       inkscape:connector-curvature="0" /><text
       style="font-variant:normal;font-size:14.00024414px;font-family:'Nimbus Roman No9 L';-inkscape-font-specification:NimbusRomNo9L-Regu;writing-mode:lr-tb;fill:#000000;fill-opacity:1;fill-rule:nonzero;stroke:none"
       id="text183"
       x="256.04688"
       y="162.5"><tspan
         x="256.04688 262.79498 272.55316"
         y="162.5"
         sodipodi:role="line"
         id="tspan181">1XX</tspan></text>
<path
       d="M 175.996,385.996 C 193.434,343.648 237.801,235.895 258.547,185.52"
       style="fill:none;stroke:#ff0000;stroke-width:1;stroke-linecap:butt;stroke-linejoin:miter;stroke-miterlimit:10;stroke-dasharray:none;stroke-opacity:1"
       id="path185"
       inkscape:connector-curvature="0" /><path
       d="m 255.32,184.16 7.043,-7.914 -0.57,10.578 z"
       style="fill:#ff0000;fill-opacity:1;fill-rule:nonzero;stroke:#ff0000;stroke-width:1;stroke-linecap:butt;stroke-linejoin:miter;stroke-miterlimit:10;stroke-dasharray:none;stroke-opacity:1"
       id="path187"
       inkscape:connector-curvature="0" /><path
       d="m 272.52,87.523 c 0,9.942 -14.551,18 -32.497,18 -17.945,0 -32.492,-8.058 -32.492,-18 0,-9.941 14.547,-18 32.492,-18 17.946,0 32.497,8.059 32.497,18"
       style="fill:#d3d3d3;fill-opacity:1;fill-rule:nonzero;stroke:#9acd32;stroke-width:1;stroke-linecap:butt;stroke-linejoin:miter;stroke-miterlimit:10;stroke-dasharray:none;stroke-opacity:1"
       id="path189"
       inkscape:connector-curvature="0" /><text
       style="font-variant:normal;font-size:14.00024414px;font-family:'Nimbus Roman No9 L';-inkscape-font-specification:NimbusRomNo9L-Regu;writing-mode:lr-tb;fill:#000000;fill-opacity:1;fill-rule:nonzero;stroke:none"
       id="text193"
       x="223.02344"
       y="91.222656"><tspan
         x="223.02344 229.77156 236.51967 246.27785"
         y="91.222656"
         sodipodi:role="line"
         id="tspan191">12XX</tspan></text>
<path
       d="M 172.785,385.699 C 184.617,333.234 219.281,179.512 233.66,115.746"
       style="fill:none;stroke:#ff0000;stroke-width:1;stroke-linecap:butt;stroke-linejoin:miter;stroke-miterlimit:10;stroke-dasharray:none;stroke-opacity:1"
       id="path195"
       inkscape:connector-curvature="0" /><path
       d="m 230.328,114.602 5.617,-8.985 1.211,10.528 z"
       style="fill:#ff0000;fill-opacity:1;fill-rule:nonzero;stroke:#ff0000;stroke-width:1;stroke-linecap:butt;stroke-linejoin:miter;stroke-miterlimit:10;stroke-dasharray:none;stroke-opacity:1"
       id="path197"
       inkscape:connector-curvature="0" /><path
       d="m 196.645,58 c 0,9.941 -12.493,18 -27.899,18 -15.406,0 -27.894,-8.059 -27.894,-18 0,-9.941 12.488,-18 27.894,-18 15.406,0 27.899,8.059 27.899,18"
       style="fill:#d3d3d3;fill-opacity:1;fill-rule:nonzero;stroke:none"
       id="path199"
       inkscape:connector-curvature="0" /><path
       d="m 196.645,58 c 0,9.941 -12.493,18 -27.899,18 -15.406,0 -27.894,-8.059 -27.894,-18 0,-9.941 12.488,-18 27.894,-18 15.406,0 27.899,8.059 27.899,18"
       style="fill:none;stroke:#00ff00;stroke-width:1;stroke-linecap:butt;stroke-linejoin:miter;stroke-miterlimit:10;stroke-dasharray:none;stroke-opacity:1"
       id="path201"
       inkscape:connector-curvature="0" /><text
       style="font-variant:normal;font-size:14.00024414px;font-family:'Nimbus Roman No9 L';-inkscape-font-specification:NimbusRomNo9L-Regu;writing-mode:lr-tb;fill:#000000;fill-opacity:1;fill-rule:nonzero;stroke:none"
       id="text205"
       x="155.24609"
       y="61.699219"><tspan
         x="155.24609 161.9942 171.75238"
         y="61.699219"
         sodipodi:role="line"
         id="tspan203">2XX</tspan></text>
<path
       d="m 168.746,385.504 c 0,-56.555 0,-230.316 0,-299.074"
       style="fill:none;stroke:#ff0000;stroke-width:1;stroke-linecap:butt;stroke-linejoin:miter;stroke-miterlimit:10;stroke-dasharray:none;stroke-opacity:1"
       id="path207"
       inkscape:connector-curvature="0" /><path
       d="m 165.246,86.332 3.5,-10 3.5,10 z"
       style="fill:#ff0000;fill-opacity:1;fill-rule:nonzero;stroke:#ff0000;stroke-width:1;stroke-linecap:butt;stroke-linejoin:miter;stroke-miterlimit:10;stroke-dasharray:none;stroke-opacity:1"
       id="path209"
       inkscape:connector-curvature="0" /><path
       d="m 129.965,87.523 c 0,9.942 -14.547,18 -32.492,18 -17.95,0 -32.496,-8.058 -32.496,-18 0,-9.941 14.546,-18 32.496,-18 17.945,0 32.492,8.059 32.492,18"
       style="fill:#d3d3d3;fill-opacity:1;fill-rule:nonzero;stroke:#00ffff;stroke-width:1;stroke-linecap:butt;stroke-linejoin:miter;stroke-miterlimit:10;stroke-dasharray:none;stroke-opacity:1"
       id="path211"
       inkscape:connector-curvature="0" /><text
       style="font-variant:normal;font-size:14.00024414px;font-family:'Nimbus Roman No9 L';-inkscape-font-specification:NimbusRomNo9L-Regu;writing-mode:lr-tb;fill:#000000;fill-opacity:1;fill-rule:nonzero;stroke:none"
       id="text215"
       x="80.472656"
       y="91.222656"><tspan
         x="80.472656 87.220772 93.968887 103.72706"
         y="91.222656"
         sodipodi:role="line"
         id="tspan213">23XX</tspan></text>
<path
       d="M 164.711,385.699 C 152.879,333.234 118.215,179.512 103.836,115.746"
       style="fill:none;stroke:#ff0000;stroke-width:1;stroke-linecap:butt;stroke-linejoin:miter;stroke-miterlimit:10;stroke-dasharray:none;stroke-opacity:1"
       id="path217"
       inkscape:connector-curvature="0" /><path
       d="m 100.336,116.145 1.215,-10.528 5.613,8.985 z"
       style="fill:#ff0000;fill-opacity:1;fill-rule:nonzero;stroke:#ff0000;stroke-width:1;stroke-linecap:butt;stroke-linejoin:miter;stroke-miterlimit:10;stroke-dasharray:none;stroke-opacity:1"
       id="path219"
       inkscape:connector-curvature="0" /><path
       d="m 95.844,158.801 c 0,9.941 -12.489,18 -27.895,18 -15.406,0 -27.898,-8.059 -27.898,-18 0,-9.942 12.492,-18 27.898,-18 15.406,0 27.895,8.058 27.895,18"
       style="fill:#d3d3d3;fill-opacity:1;fill-rule:nonzero;stroke:none"
       id="path221"
       inkscape:connector-curvature="0" /><path
       d="m 95.844,158.801 c 0,9.941 -12.489,18 -27.895,18 -15.406,0 -27.898,-8.059 -27.898,-18 0,-9.942 12.492,-18 27.898,-18 15.406,0 27.895,8.058 27.895,18"
       style="fill:none;stroke:#0000ff;stroke-width:1;stroke-linecap:butt;stroke-linejoin:miter;stroke-miterlimit:10;stroke-dasharray:none;stroke-opacity:1"
       id="path223"
       inkscape:connector-curvature="0" /><text
       style="font-variant:normal;font-size:14.00024414px;font-family:'Nimbus Roman No9 L';-inkscape-font-specification:NimbusRomNo9L-Regu;writing-mode:lr-tb;fill:#000000;fill-opacity:1;fill-rule:nonzero;stroke:none"
       id="text227"
       x="54.449219"
       y="162.5"><tspan
         x="54.449219 61.197338 70.955505"
         y="162.5"
         sodipodi:role="line"
         id="tspan225">3XX</tspan></text>
<path
       d="M 161.5,385.996 C 144.062,343.648 99.691,235.895 78.949,185.52"
       style="fill:none;stroke:#ff0000;stroke-width:1;stroke-linecap:butt;stroke-linejoin:miter;stroke-miterlimit:10;stroke-dasharray:none;stroke-opacity:1"
       id="path229"
       inkscape:connector-curvature="0" /><path
       d="m 75.703,186.824 -0.57,-10.578 7.043,7.914 z"
       style="fill:#ff0000;fill-opacity:1;fill-rule:nonzero;stroke:#ff0000;stroke-width:1;stroke-linecap:butt;stroke-linejoin:miter;stroke-miterlimit:10;stroke-dasharray:none;stroke-opacity:1"
       id="path231"
       inkscape:connector-curvature="0" /><text
       style="font-variant:normal;font-size:14.00024414px;font-family:'Nimbus Roman No9 L';-inkscape-font-specification:NimbusRomNo9L-Regu;writing-mode:lr-tb;fill:#000000;fill-opacity:1;fill-rule:nonzero;stroke:none"
       id="text237"
       x="77.472656"
       y="233.77734"><tspan
         x="77.472656 84.220772 90.968887 97.71701 107.47518"
         y="233.77734"
         sodipodi:role="line"
         id="tspan235">123XX</tspan></text>
<path
       d="M 161.52,386.008 C 149.035,355.605 123.34,293.055 108.574,257.102"
       style="fill:none;stroke:#ff0000;stroke-width:1;stroke-linecap:butt;stroke-linejoin:miter;stroke-miterlimit:10;stroke-dasharray:none;stroke-opacity:1"
       id="path239"
       inkscape:connector-curvature="0" /><path
       d="m 105.277,258.297 -0.558,-10.582 7.035,7.922 z"
       style="fill:#ff0000;fill-opacity:1;fill-rule:nonzero;stroke:#ff0000;stroke-width:1;stroke-linecap:butt;stroke-linejoin:miter;stroke-miterlimit:10;stroke-dasharray:none;stroke-opacity:1"
       id="path241"
       inkscape:connector-curvature="0" /><text
       style="font-variant:normal;font-size:14.00024414px;font-family:'Nimbus Roman No9 L';-inkscape-font-specification:NimbusRomNo9L-Regu;writing-mode:lr-tb;fill:#000000;fill-opacity:1;fill-rule:nonzero;stroke:none"
       id="text247"
       x="223.02344"
       y="233.77734"><tspan
         x="223.02344 229.77156 236.51967 246.27785"
         y="233.77734"
         sodipodi:role="line"
         id="tspan245">13XX</tspan></text>
<path
       d="m 175.973,386.008 c 12.488,-30.403 38.183,-92.953 52.949,-128.906"
       style="fill:none;stroke:#ff0000;stroke-width:1;stroke-linecap:butt;stroke-linejoin:miter;stroke-miterlimit:10;stroke-dasharray:none;stroke-opacity:1"
       id="path249"
       inkscape:connector-curvature="0" /><path
       d="m 225.742,255.637 7.035,-7.922 -0.562,10.582 z"
       style="fill:#ff0000;fill-opacity:1;fill-rule:nonzero;stroke:#ff0000;stroke-width:1;stroke-linecap:butt;stroke-linejoin:miter;stroke-miterlimit:10;stroke-dasharray:none;stroke-opacity:1"
       id="path251"
       inkscape:connector-curvature="0" /></g></svg>