<?xml version="1.0" encoding="UTF-8" standalone="no"?>
<!-- Created with Inkscape (http://www.inkscape.org/) -->

<svg
   xmlns:dc="http://purl.org/dc/elements/1.1/"
   xmlns:cc="http://creativecommons.org/ns#"
   xmlns:rdf="http://www.w3.org/1999/02/22-rdf-syntax-ns#"
   xmlns:svg="http://www.w3.org/2000/svg"
   xmlns="http://www.w3.org/2000/svg"
   xmlns:sodipodi="http://sodipodi.sourceforge.net/DTD/sodipodi-0.dtd"
   xmlns:inkscape="http://www.inkscape.org/namespaces/inkscape"
   version="1.1"
   id="svg388"
   xml:space="preserve"
   width="832"
   height="616"
   viewBox="0 0 832 616"
   sodipodi:docname="baseball_all_double1.svg"
   inkscape:version="0.92.4 (unknown)"
   inkscape:export-filename="/home/sean/Code/baseball_graph/baseball_all_double1.png"
   inkscape:export-xdpi="150"
   inkscape:export-ydpi="150"><metadata
     id="metadata394"><rdf:RDF><cc:Work
         rdf:about=""><dc:format>image/svg+xml</dc:format><dc:type
           rdf:resource="http://purl.org/dc/dcmitype/StillImage" /><dc:title></dc:title></cc:Work></rdf:RDF></metadata><defs
     id="defs392"><clipPath
       clipPathUnits="userSpaceOnUse"
       id="clipPath406"><path
         d="M 36,36 H 587.602 V 425.602 H 36 Z"
         id="path404"
         inkscape:connector-curvature="0" /></clipPath></defs><sodipodi:namedview
     pagecolor="#ffffff"
     bordercolor="#666666"
     borderopacity="1"
     objecttolerance="10"
     gridtolerance="10"
     guidetolerance="10"
     inkscape:pageopacity="0"
     inkscape:pageshadow="2"
     inkscape:window-width="1853"
     inkscape:window-height="1025"
     id="namedview390"
     showgrid="false"
     inkscape:zoom="1.2930195"
     inkscape:cx="277.56434"
     inkscape:cy="308"
     inkscape:window-x="67"
     inkscape:window-y="27"
     inkscape:window-maximized="1"
     inkscape:current-layer="g396" /><g
     id="g396"
     inkscape:groupmode="layer"
     inkscape:label="baseball_all_double1"
     transform="matrix(1.3333333,0,0,1.3333333,0,1.54e-5)"><path
       d="m 415.57,374.078 c 0,9.938 -14.547,18 -32.492,18 -17.949,0 -32.496,-8.062 -32.496,-18 0,-9.941 14.547,-18 32.496,-18 17.945,0 32.492,8.059 32.492,18"
       style="fill:#d3d3d3;fill-opacity:1;fill-rule:nonzero;stroke:#ff0000;stroke-width:1;stroke-linecap:butt;stroke-linejoin:miter;stroke-miterlimit:10;stroke-dasharray:none;stroke-opacity:1"
       id="path490"
       inkscape:connector-curvature="0" /><g
       id="g398" /><path
       d="m 339.695,403.602 c 0,9.941 -12.488,18 -27.894,18 -15.406,0 -27.895,-8.059 -27.895,-18 0,-9.942 12.489,-18 27.895,-18 15.406,0 27.894,8.058 27.894,18"
       style="fill:#d3d3d3;fill-opacity:1;fill-rule:nonzero;stroke:none"
       id="path410"
       inkscape:connector-curvature="0" /><path
       d="m 339.695,403.602 c 0,9.941 -12.488,18 -27.894,18 -15.406,0 -27.895,-8.059 -27.895,-18 0,-9.942 12.489,-18 27.895,-18 15.406,0 27.894,8.058 27.894,18"
       style="fill:none;stroke:#ff00ff;stroke-width:1;stroke-linecap:butt;stroke-linejoin:miter;stroke-miterlimit:10;stroke-dasharray:none;stroke-opacity:1"
       id="path412"
       inkscape:connector-curvature="0" /><text
       style="font-variant:normal;font-size:14.00024414px;font-family:'Nimbus Roman No9 L';-inkscape-font-specification:NimbusRomNo9L-Regu;writing-mode:lr-tb;fill:#000000;fill-opacity:1;fill-rule:nonzero;stroke:none"
       id="text416"
       x="298.30078"
       y="407.30078"><tspan
         x="298.30078 305.04889 314.80707"
         y="407.30078"
         sodipodi:role="line"
         id="tspan414">0XX</tspan></text>
<path
       d="m 440.496,302.801 c 0,9.941 -12.488,18 -27.894,18 -15.407,0 -27.899,-8.059 -27.899,-18 0,-9.942 12.492,-18 27.899,-18 15.406,0 27.894,8.058 27.894,18"
       style="fill:#d3d3d3;fill-opacity:1;fill-rule:nonzero;stroke:#ffff00;stroke-width:1;stroke-linecap:butt;stroke-linejoin:miter;stroke-miterlimit:10;stroke-dasharray:none;stroke-opacity:1"
       id="path418"
       inkscape:connector-curvature="0" /><text
       style="font-variant:normal;font-size:14.00024414px;font-family:'Nimbus Roman No9 L';-inkscape-font-specification:NimbusRomNo9L-Regu;writing-mode:lr-tb;fill:#000000;fill-opacity:1;fill-rule:nonzero;stroke:none"
       id="text422"
       x="399.10156"
       y="306.5"><tspan
         x="399.10156 405.84967 415.60785"
         y="306.5"
         sodipodi:role="line"
         id="tspan420">1XX</tspan></text>
<path
       d="m 583.602,302.801 c 0,9.941 -12.09,18 -27,18 -14.914,0 -27,-8.059 -27,-18 0,-9.942 12.086,-18 27,-18 14.91,0 27,8.058 27,18"
       style="fill:#ffff00;fill-opacity:1;fill-rule:nonzero;stroke:none"
       id="path424"
       inkscape:connector-curvature="0" /><path
       d="m 583.602,302.801 c 0,9.941 -12.09,18 -27,18 -14.914,0 -27,-8.059 -27,-18 0,-9.942 12.086,-18 27,-18 14.91,0 27,8.058 27,18"
       style="fill:none;stroke:#ffff00;stroke-width:1;stroke-linecap:butt;stroke-linejoin:miter;stroke-miterlimit:10;stroke-dasharray:none;stroke-opacity:1"
       id="path426"
       inkscape:connector-curvature="0" /><text
       style="font-variant:normal;font-size:14.00024414px;font-family:'Nimbus Roman No9 L';-inkscape-font-specification:NimbusRomNo9L-Regu;writing-mode:lr-tb;fill:#000000;fill-opacity:1;fill-rule:nonzero;stroke:none"
       id="text430"
       x="553.10156"
       y="306.5"><tspan
         x="553.10156"
         y="306.5"
         id="tspan428">1</tspan></text>
<path
       d="m 533.57,312.281 c -43.519,17.922 -137.976,56.817 -188.425,77.59"
       style="fill:none;stroke:#000000;stroke-width:1;stroke-linecap:butt;stroke-linejoin:miter;stroke-miterlimit:10;stroke-dasharray:none;stroke-opacity:1"
       id="path432"
       inkscape:connector-curvature="0" /><path
       d="m 346.246,393.199 -10.578,0.574 7.914,-7.046 z"
       style="fill:#000000;fill-opacity:1;fill-rule:nonzero;stroke:#000000;stroke-width:1;stroke-linecap:butt;stroke-linejoin:miter;stroke-miterlimit:10;stroke-dasharray:none;stroke-opacity:1"
       id="path434"
       inkscape:connector-curvature="0" /><path
       d="m 529.516,302.801 c -22.102,0 -53.598,0 -78.336,0"
       style="fill:none;stroke:#ff0000;stroke-width:1;stroke-linecap:butt;stroke-linejoin:miter;stroke-miterlimit:10;stroke-dasharray:none;stroke-opacity:1"
       id="path436"
       inkscape:connector-curvature="0" /><path
       d="m 451.043,306.301 -10,-3.5 10,-3.5 z"
       style="fill:#ff0000;fill-opacity:1;fill-rule:nonzero;stroke:#ff0000;stroke-width:1;stroke-linecap:butt;stroke-linejoin:miter;stroke-miterlimit:10;stroke-dasharray:none;stroke-opacity:1"
       id="path438"
       inkscape:connector-curvature="0" /><path
       d="m 415.57,231.523 c 0,9.942 -14.547,18 -32.492,18 -17.949,0 -32.496,-8.058 -32.496,-18 0,-9.941 14.547,-18 32.496,-18 17.945,0 32.492,8.059 32.492,18"
       style="fill:#d3d3d3;fill-opacity:1;fill-rule:nonzero;stroke:#9acd32;stroke-width:1;stroke-linecap:butt;stroke-linejoin:miter;stroke-miterlimit:10;stroke-dasharray:none;stroke-opacity:1"
       id="path440"
       inkscape:connector-curvature="0" /><text
       style="font-variant:normal;font-size:14.00024414px;font-family:'Nimbus Roman No9 L';-inkscape-font-specification:NimbusRomNo9L-Regu;writing-mode:lr-tb;fill:#000000;fill-opacity:1;fill-rule:nonzero;stroke:none"
       id="text444"
       x="366.07812"
       y="235.22266"><tspan
         x="366.07812 372.82623 379.57434 389.33252"
         y="235.22266"
         sodipodi:role="line"
         id="tspan442">12XX</tspan></text>
<path
       d="M 533.559,293.336 C 504.273,281.305 453.406,260.41 419.008,246.281"
       style="fill:none;stroke:#ff0000;stroke-width:1;stroke-linecap:butt;stroke-linejoin:miter;stroke-miterlimit:10;stroke-dasharray:none;stroke-opacity:1"
       id="path446"
       inkscape:connector-curvature="0" /><path
       d="m 417.258,249.348 -7.922,-7.036 10.582,0.559 z"
       style="fill:#ff0000;fill-opacity:1;fill-rule:nonzero;stroke:#ff0000;stroke-width:1;stroke-linecap:butt;stroke-linejoin:miter;stroke-miterlimit:10;stroke-dasharray:none;stroke-opacity:1"
       id="path448"
       inkscape:connector-curvature="0" /><path
       d="m 339.695,202 c 0,9.941 -12.488,18 -27.894,18 -15.406,0 -27.895,-8.059 -27.895,-18 0,-9.941 12.489,-18 27.895,-18 15.406,0 27.894,8.059 27.894,18"
       style="fill:#d3d3d3;fill-opacity:1;fill-rule:nonzero;stroke:#00ff00;stroke-width:1;stroke-linecap:butt;stroke-linejoin:miter;stroke-miterlimit:10;stroke-dasharray:none;stroke-opacity:1"
       id="path450"
       inkscape:connector-curvature="0" /><text
       style="font-variant:normal;font-size:14.00024414px;font-family:'Nimbus Roman No9 L';-inkscape-font-specification:NimbusRomNo9L-Regu;writing-mode:lr-tb;fill:#000000;fill-opacity:1;fill-rule:nonzero;stroke:none"
       id="text454"
       x="298.30078"
       y="205.69922"><tspan
         x="298.30078 305.04889 314.80707"
         y="205.69922"
         sodipodi:role="line"
         id="tspan452">2XX</tspan></text>
<path
       d="M 533.57,293.316 C 490.051,275.398 395.594,236.504 345.145,215.73"
       style="fill:none;stroke:#ff0000;stroke-width:1;stroke-linecap:butt;stroke-linejoin:miter;stroke-miterlimit:10;stroke-dasharray:none;stroke-opacity:1"
       id="path456"
       inkscape:connector-curvature="0" /><path
       d="m 343.582,218.871 -7.914,-7.043 10.578,0.57 z"
       style="fill:#ff0000;fill-opacity:1;fill-rule:nonzero;stroke:#ff0000;stroke-width:1;stroke-linecap:butt;stroke-linejoin:miter;stroke-miterlimit:10;stroke-dasharray:none;stroke-opacity:1"
       id="path458"
       inkscape:connector-curvature="0" /><path
       d="m 273.02,231.523 c 0,9.942 -14.551,18 -32.497,18 -17.945,0 -32.492,-8.058 -32.492,-18 0,-9.941 14.547,-18 32.492,-18 17.946,0 32.497,8.059 32.497,18"
       style="fill:#d3d3d3;fill-opacity:1;fill-rule:nonzero;stroke:#00ffff;stroke-width:1;stroke-linecap:butt;stroke-linejoin:miter;stroke-miterlimit:10;stroke-dasharray:none;stroke-opacity:1"
       id="path460"
       inkscape:connector-curvature="0" /><text
       style="font-variant:normal;font-size:14.00024414px;font-family:'Nimbus Roman No9 L';-inkscape-font-specification:NimbusRomNo9L-Regu;writing-mode:lr-tb;fill:#000000;fill-opacity:1;fill-rule:nonzero;stroke:none"
       id="text464"
       x="223.52344"
       y="235.22266"><tspan
         x="223.52344 230.27156 237.01967 246.77785"
         y="235.22266"
         sodipodi:role="line"
         id="tspan462">23XX</tspan></text>
<path
       d="M 531,297.027 C 476.176,284.664 347.039,255.543 280.984,240.648"
       style="fill:none;stroke:#ff0000;stroke-width:1;stroke-linecap:butt;stroke-linejoin:miter;stroke-miterlimit:10;stroke-dasharray:none;stroke-opacity:1"
       id="path466"
       inkscape:connector-curvature="0" /><path
       d="m 279.93,243.996 -8.985,-5.613 10.524,-1.215 z"
       style="fill:#ff0000;fill-opacity:1;fill-rule:nonzero;stroke:#ff0000;stroke-width:1;stroke-linecap:butt;stroke-linejoin:miter;stroke-miterlimit:10;stroke-dasharray:none;stroke-opacity:1"
       id="path468"
       inkscape:connector-curvature="0" /><path
       d="m 238.895,302.801 c 0,9.941 -12.489,18 -27.895,18 -15.406,0 -27.895,-8.059 -27.895,-18 0,-9.942 12.489,-18 27.895,-18 15.406,0 27.895,8.058 27.895,18"
       style="fill:#d3d3d3;fill-opacity:1;fill-rule:nonzero;stroke:#0000ff;stroke-width:1;stroke-linecap:butt;stroke-linejoin:miter;stroke-miterlimit:10;stroke-dasharray:none;stroke-opacity:1"
       id="path470"
       inkscape:connector-curvature="0" /><text
       style="font-variant:normal;font-size:14.00024414px;font-family:'Nimbus Roman No9 L';-inkscape-font-specification:NimbusRomNo9L-Regu;writing-mode:lr-tb;fill:#000000;fill-opacity:1;fill-rule:nonzero;stroke:none"
       id="text474"
       x="197.5"
       y="306.5"><tspan
         x="197.5 204.24812 214.00629"
         y="306.5"
         sodipodi:role="line"
         id="tspan472">3XX</tspan></text>
<path
       d="m 529.48,302.801 c -61.148,0 -209.91,0 -280.324,0"
       style="fill:none;stroke:#ff0000;stroke-width:1;stroke-linecap:butt;stroke-linejoin:miter;stroke-miterlimit:10;stroke-dasharray:none;stroke-opacity:1"
       id="path476"
       inkscape:connector-curvature="0" /><path
       d="m 248.953,306.301 -10,-3.5 10,-3.5 z"
       style="fill:#ff0000;fill-opacity:1;fill-rule:nonzero;stroke:#ff0000;stroke-width:1;stroke-linecap:butt;stroke-linejoin:miter;stroke-miterlimit:10;stroke-dasharray:none;stroke-opacity:1"
       id="path478"
       inkscape:connector-curvature="0" /><path
       d="m 276.816,374.078 c 0,9.938 -16.25,18 -36.293,18 -20.043,0 -36.293,-8.062 -36.293,-18 0,-9.941 16.25,-18 36.293,-18 20.043,0 36.293,8.059 36.293,18"
       style="fill:#d3d3d3;fill-opacity:1;fill-rule:nonzero;stroke:#a020f0;stroke-width:1;stroke-linecap:butt;stroke-linejoin:miter;stroke-miterlimit:10;stroke-dasharray:none;stroke-opacity:1"
       id="path480"
       inkscape:connector-curvature="0" /><text
       style="font-variant:normal;font-size:14.00024414px;font-family:'Nimbus Roman No9 L';-inkscape-font-specification:NimbusRomNo9L-Regu;writing-mode:lr-tb;fill:#000000;fill-opacity:1;fill-rule:nonzero;stroke:none"
       id="text484"
       x="220.52344"
       y="377.77734"><tspan
         x="220.52344 227.27156 234.01967 240.76779 250.52597"
         y="377.77734"
         sodipodi:role="line"
         id="tspan482">123XX</tspan></text>
<path
       d="m 531,308.574 c -54.098,12.199 -180.555,40.715 -247.359,55.778"
       style="fill:none;stroke:#ff0000;stroke-width:1;stroke-linecap:butt;stroke-linejoin:miter;stroke-miterlimit:10;stroke-dasharray:none;stroke-opacity:1"
       id="path486"
       inkscape:connector-curvature="0" /><path
       d="m 284.367,367.777 -10.527,-1.215 8.984,-5.613 z"
       style="fill:#ff0000;fill-opacity:1;fill-rule:nonzero;stroke:#ff0000;stroke-width:1;stroke-linecap:butt;stroke-linejoin:miter;stroke-miterlimit:10;stroke-dasharray:none;stroke-opacity:1"
       id="path488"
       inkscape:connector-curvature="0" /><text
       style="font-variant:normal;font-size:14.00024414px;font-family:'Nimbus Roman No9 L';-inkscape-font-specification:NimbusRomNo9L-Regu;writing-mode:lr-tb;fill:#000000;fill-opacity:1;fill-rule:nonzero;stroke:none"
       id="text494"
       x="366.07812"
       y="377.77734"><tspan
         x="366.07812 372.82623 379.57434 389.33252"
         y="377.77734"
         sodipodi:role="line"
         id="tspan492">13XX</tspan></text>
<path
       d="m 533.559,312.266 c -29.286,12.027 -80.153,32.922 -114.551,47.05"
       style="fill:none;stroke:#ff0000;stroke-width:1;stroke-linecap:butt;stroke-linejoin:miter;stroke-miterlimit:10;stroke-dasharray:none;stroke-opacity:1"
       id="path496"
       inkscape:connector-curvature="0" /><path
       d="m 419.918,362.727 -10.582,0.562 7.922,-7.035 z"
       style="fill:#ff0000;fill-opacity:1;fill-rule:nonzero;stroke:#ff0000;stroke-width:1;stroke-linecap:butt;stroke-linejoin:miter;stroke-miterlimit:10;stroke-dasharray:none;stroke-opacity:1"
       id="path498"
       inkscape:connector-curvature="0" /><path
       d="m 338.801,58 c 0,9.941 -12.09,18 -27,18 -14.914,0 -27,-8.059 -27,-18 0,-9.941 12.086,-18 27,-18 14.91,0 27,8.059 27,18"
       style="fill:#00ff00;fill-opacity:1;fill-rule:nonzero;stroke:none"
       id="path500"
       inkscape:connector-curvature="0" /><path
       d="m 338.801,58 c 0,9.941 -12.09,18 -27,18 -14.914,0 -27,-8.059 -27,-18 0,-9.941 12.086,-18 27,-18 14.91,0 27,8.059 27,18"
       style="fill:none;stroke:#00ff00;stroke-width:1;stroke-linecap:butt;stroke-linejoin:miter;stroke-miterlimit:10;stroke-dasharray:none;stroke-opacity:1"
       id="path502"
       inkscape:connector-curvature="0" /><text
       style="font-variant:normal;font-size:14.00024414px;font-family:'Nimbus Roman No9 L';-inkscape-font-specification:NimbusRomNo9L-Regu;writing-mode:lr-tb;fill:#000000;fill-opacity:1;fill-rule:nonzero;stroke:none"
       id="text506"
       x="308.30078"
       y="61.699219"><tspan
         x="308.30078"
         y="61.699219"
         id="tspan504">2</tspan></text>
<path
       d="m 311.801,76.094 c 0,56.558 0,230.32 0,299.074"
       style="fill:none;stroke:#000000;stroke-width:1;stroke-linecap:butt;stroke-linejoin:miter;stroke-miterlimit:10;stroke-dasharray:none;stroke-opacity:1"
       id="path508"
       inkscape:connector-curvature="0" /><path
       d="m 315.301,375.27 -3.5,10 -3.5,-10 z"
       style="fill:#000000;fill-opacity:1;fill-rule:nonzero;stroke:#000000;stroke-width:1;stroke-linecap:butt;stroke-linejoin:miter;stroke-miterlimit:10;stroke-dasharray:none;stroke-opacity:1"
       id="path510"
       inkscape:connector-curvature="0" /><path
       d="m 319.051,75.605 c 17.433,42.344 61.804,150.098 82.547,200.477"
       style="fill:none;stroke:#ff0000;stroke-width:1;stroke-linecap:butt;stroke-linejoin:miter;stroke-miterlimit:10;stroke-dasharray:none;stroke-opacity:1"
       id="path512"
       inkscape:connector-curvature="0" /><path
       d="m 404.844,274.773 0.574,10.582 -7.047,-7.914 z"
       style="fill:#ff0000;fill-opacity:1;fill-rule:nonzero;stroke:#ff0000;stroke-width:1;stroke-linecap:butt;stroke-linejoin:miter;stroke-miterlimit:10;stroke-dasharray:none;stroke-opacity:1"
       id="path514"
       inkscape:connector-curvature="0" /><path
       d="m 319.027,75.594 c 12.489,30.398 38.18,92.949 52.95,128.902"
       style="fill:none;stroke:#ff0000;stroke-width:1;stroke-linecap:butt;stroke-linejoin:miter;stroke-miterlimit:10;stroke-dasharray:none;stroke-opacity:1"
       id="path516"
       inkscape:connector-curvature="0" /><path
       d="m 375.27,203.305 0.562,10.578 -7.039,-7.918 z"
       style="fill:#ff0000;fill-opacity:1;fill-rule:nonzero;stroke:#ff0000;stroke-width:1;stroke-linecap:butt;stroke-linejoin:miter;stroke-miterlimit:10;stroke-dasharray:none;stroke-opacity:1"
       id="path518"
       inkscape:connector-curvature="0" /><path
       d="m 311.801,76.238 c 0,24.563 0,68.516 0,97.407"
       style="fill:none;stroke:#ff0000;stroke-width:1;stroke-linecap:butt;stroke-linejoin:miter;stroke-miterlimit:10;stroke-dasharray:none;stroke-opacity:1"
       id="path520"
       inkscape:connector-curvature="0" /><path
       d="m 315.301,173.91 -3.5,10 -3.5,-10 z"
       style="fill:#ff0000;fill-opacity:1;fill-rule:nonzero;stroke:#ff0000;stroke-width:1;stroke-linecap:butt;stroke-linejoin:miter;stroke-miterlimit:10;stroke-dasharray:none;stroke-opacity:1"
       id="path522"
       inkscape:connector-curvature="0" /><path
       d="m 304.574,75.594 c -12.488,30.398 -38.179,92.949 -52.949,128.902"
       style="fill:none;stroke:#ff0000;stroke-width:1;stroke-linecap:butt;stroke-linejoin:miter;stroke-miterlimit:10;stroke-dasharray:none;stroke-opacity:1"
       id="path524"
       inkscape:connector-curvature="0" /><path
       d="m 254.805,205.965 -7.035,7.918 0.562,-10.578 z"
       style="fill:#ff0000;fill-opacity:1;fill-rule:nonzero;stroke:#ff0000;stroke-width:1;stroke-linecap:butt;stroke-linejoin:miter;stroke-miterlimit:10;stroke-dasharray:none;stroke-opacity:1"
       id="path526"
       inkscape:connector-curvature="0" /><path
       d="m 304.551,75.605 c -17.438,42.344 -61.805,150.098 -82.547,200.477"
       style="fill:none;stroke:#ff0000;stroke-width:1;stroke-linecap:butt;stroke-linejoin:miter;stroke-miterlimit:10;stroke-dasharray:none;stroke-opacity:1"
       id="path528"
       inkscape:connector-curvature="0" /><path
       d="m 225.227,277.441 -7.043,7.914 0.57,-10.582 z"
       style="fill:#ff0000;fill-opacity:1;fill-rule:nonzero;stroke:#ff0000;stroke-width:1;stroke-linecap:butt;stroke-linejoin:miter;stroke-miterlimit:10;stroke-dasharray:none;stroke-opacity:1"
       id="path530"
       inkscape:connector-curvature="0" /><path
       d="M 307.762,75.898 C 295.934,128.367 261.266,282.09 246.887,345.855"
       style="fill:none;stroke:#ff0000;stroke-width:1;stroke-linecap:butt;stroke-linejoin:miter;stroke-miterlimit:10;stroke-dasharray:none;stroke-opacity:1"
       id="path532"
       inkscape:connector-curvature="0" /><path
       d="m 250.219,346.996 -5.614,8.984 -1.214,-10.523 z"
       style="fill:#ff0000;fill-opacity:1;fill-rule:nonzero;stroke:#ff0000;stroke-width:1;stroke-linecap:butt;stroke-linejoin:miter;stroke-miterlimit:10;stroke-dasharray:none;stroke-opacity:1"
       id="path534"
       inkscape:connector-curvature="0" /><path
       d="m 315.836,75.898 c 11.832,52.469 46.496,206.192 60.875,269.957"
       style="fill:none;stroke:#ff0000;stroke-width:1;stroke-linecap:butt;stroke-linejoin:miter;stroke-miterlimit:10;stroke-dasharray:none;stroke-opacity:1"
       id="path536"
       inkscape:connector-curvature="0" /><path
       d="m 380.211,345.457 -1.215,10.523 -5.613,-8.984 z"
       style="fill:#ff0000;fill-opacity:1;fill-rule:nonzero;stroke:#ff0000;stroke-width:1;stroke-linecap:butt;stroke-linejoin:miter;stroke-miterlimit:10;stroke-dasharray:none;stroke-opacity:1"
       id="path538"
       inkscape:connector-curvature="0" /><path
       d="m 94,302.801 c 0,9.941 -12.09,18 -27,18 -14.91,0 -27,-8.059 -27,-18 0,-9.942 12.09,-18 27,-18 14.91,0 27,8.058 27,18"
       style="fill:#0000ff;fill-opacity:1;fill-rule:nonzero;stroke:none"
       id="path540"
       inkscape:connector-curvature="0" /><path
       d="m 94,302.801 c 0,9.941 -12.09,18 -27,18 -14.91,0 -27,-8.059 -27,-18 0,-9.942 12.09,-18 27,-18 14.91,0 27,8.058 27,18"
       style="fill:none;stroke:#0000ff;stroke-width:1;stroke-linecap:butt;stroke-linejoin:miter;stroke-miterlimit:10;stroke-dasharray:none;stroke-opacity:1"
       id="path542"
       inkscape:connector-curvature="0" /><text
       style="font-variant:normal;font-size:14.00024414px;font-family:'Nimbus Roman No9 L';-inkscape-font-specification:NimbusRomNo9L-Regu;writing-mode:lr-tb;fill:#000000;fill-opacity:1;fill-rule:nonzero;stroke:none"
       id="text546"
       x="63.5"
       y="306.5"><tspan
         x="63.5"
         y="306.5"
         id="tspan544">3</tspan></text>
<path
       d="m 90.031,312.281 c 43.516,17.922 137.973,56.817 188.426,77.59"
       style="fill:none;stroke:#000000;stroke-width:1;stroke-linecap:butt;stroke-linejoin:miter;stroke-miterlimit:10;stroke-dasharray:none;stroke-opacity:1"
       id="path548"
       inkscape:connector-curvature="0" /><path
       d="m 280.02,386.727 7.914,7.046 -10.582,-0.574 z"
       style="fill:#000000;fill-opacity:1;fill-rule:nonzero;stroke:#000000;stroke-width:1;stroke-linecap:butt;stroke-linejoin:miter;stroke-miterlimit:10;stroke-dasharray:none;stroke-opacity:1"
       id="path550"
       inkscape:connector-curvature="0" /><path
       d="m 94.117,302.801 c 61.149,0 209.91,0 280.328,0"
       style="fill:none;stroke:#ff0000;stroke-width:1;stroke-linecap:butt;stroke-linejoin:miter;stroke-miterlimit:10;stroke-dasharray:none;stroke-opacity:1"
       id="path552"
       inkscape:connector-curvature="0" /><path
       d="m 374.648,299.301 10,3.5 -10,3.5 z"
       style="fill:#ff0000;fill-opacity:1;fill-rule:nonzero;stroke:#ff0000;stroke-width:1;stroke-linecap:butt;stroke-linejoin:miter;stroke-miterlimit:10;stroke-dasharray:none;stroke-opacity:1"
       id="path554"
       inkscape:connector-curvature="0" /><path
       d="m 92.598,297.027 c 54.824,-12.363 183.961,-41.484 250.019,-56.379"
       style="fill:none;stroke:#ff0000;stroke-width:1;stroke-linecap:butt;stroke-linejoin:miter;stroke-miterlimit:10;stroke-dasharray:none;stroke-opacity:1"
       id="path556"
       inkscape:connector-curvature="0" /><path
       d="m 342.133,237.168 10.523,1.215 -8.984,5.613 z"
       style="fill:#ff0000;fill-opacity:1;fill-rule:nonzero;stroke:#ff0000;stroke-width:1;stroke-linecap:butt;stroke-linejoin:miter;stroke-miterlimit:10;stroke-dasharray:none;stroke-opacity:1"
       id="path558"
       inkscape:connector-curvature="0" /><path
       d="M 90.031,293.316 C 133.547,275.398 228.004,236.504 278.457,215.73"
       style="fill:none;stroke:#ff0000;stroke-width:1;stroke-linecap:butt;stroke-linejoin:miter;stroke-miterlimit:10;stroke-dasharray:none;stroke-opacity:1"
       id="path560"
       inkscape:connector-curvature="0" /><path
       d="m 277.352,212.398 10.582,-0.57 -7.914,7.043 z"
       style="fill:#ff0000;fill-opacity:1;fill-rule:nonzero;stroke:#ff0000;stroke-width:1;stroke-linecap:butt;stroke-linejoin:miter;stroke-miterlimit:10;stroke-dasharray:none;stroke-opacity:1"
       id="path562"
       inkscape:connector-curvature="0" /><path
       d="m 90.043,293.336 c 29.285,-12.031 80.152,-32.926 114.551,-47.055"
       style="fill:none;stroke:#ff0000;stroke-width:1;stroke-linecap:butt;stroke-linejoin:miter;stroke-miterlimit:10;stroke-dasharray:none;stroke-opacity:1"
       id="path564"
       inkscape:connector-curvature="0" /><path
       d="m 203.684,242.871 10.578,-0.559 -7.918,7.036 z"
       style="fill:#ff0000;fill-opacity:1;fill-rule:nonzero;stroke:#ff0000;stroke-width:1;stroke-linecap:butt;stroke-linejoin:miter;stroke-miterlimit:10;stroke-dasharray:none;stroke-opacity:1"
       id="path566"
       inkscape:connector-curvature="0" /><path
       d="m 94.086,302.801 c 22.098,0 53.598,0 78.332,0"
       style="fill:none;stroke:#ff0000;stroke-width:1;stroke-linecap:butt;stroke-linejoin:miter;stroke-miterlimit:10;stroke-dasharray:none;stroke-opacity:1"
       id="path568"
       inkscape:connector-curvature="0" /><path
       d="m 172.559,299.301 10,3.5 -10,3.5 z"
       style="fill:#ff0000;fill-opacity:1;fill-rule:nonzero;stroke:#ff0000;stroke-width:1;stroke-linecap:butt;stroke-linejoin:miter;stroke-miterlimit:10;stroke-dasharray:none;stroke-opacity:1"
       id="path570"
       inkscape:connector-curvature="0" /><path
       d="m 90.043,312.266 c 28.902,11.871 78.836,32.382 113.203,46.5"
       style="fill:none;stroke:#ff0000;stroke-width:1;stroke-linecap:butt;stroke-linejoin:miter;stroke-miterlimit:10;stroke-dasharray:none;stroke-opacity:1"
       id="path572"
       inkscape:connector-curvature="0" /><path
       d="m 204.578,355.527 7.918,7.035 -10.578,-0.558 z"
       style="fill:#ff0000;fill-opacity:1;fill-rule:nonzero;stroke:#ff0000;stroke-width:1;stroke-linecap:butt;stroke-linejoin:miter;stroke-miterlimit:10;stroke-dasharray:none;stroke-opacity:1"
       id="path574"
       inkscape:connector-curvature="0" /><path
       d="m 92.598,308.574 c 54.824,12.364 183.961,41.481 250.019,56.379"
       style="fill:none;stroke:#ff0000;stroke-width:1;stroke-linecap:butt;stroke-linejoin:miter;stroke-miterlimit:10;stroke-dasharray:none;stroke-opacity:1"
       id="path576"
       inkscape:connector-curvature="0" /><path
       d="m 343.672,361.602 8.984,5.613 -10.523,1.215 z"
       style="fill:#ff0000;fill-opacity:1;fill-rule:nonzero;stroke:#ff0000;stroke-width:1;stroke-linecap:butt;stroke-linejoin:miter;stroke-miterlimit:10;stroke-dasharray:none;stroke-opacity:1"
       id="path578"
       inkscape:connector-curvature="0" /></g></svg>